HIERARCHY
ROOT Hips
{
	OFFSET 0.00000 0.00000 0.00000
	CHANNELS 6 Xposition Yposition Zposition Zrotation Yrotation Xrotation 
	JOINT LHipJoint
	{
		OFFSET 0 0 0
		CHANNELS 3 Zrotation Yrotation Xrotation
		JOINT LeftUpLeg
		{
			OFFSET 1.55766 -1.60504 1.11378
			CHANNELS 3 Zrotation Yrotation Xrotation
			JOINT LeftLeg
			{
				OFFSET 2.29047 -6.29302 0.00000
				CHANNELS 3 Zrotation Yrotation Xrotation
				JOINT LeftFoot
				{
					OFFSET 2.52265 -6.93093 0.00000
					CHANNELS 3 Zrotation Yrotation Xrotation
					JOINT LeftToeBase
					{
						OFFSET 0.17633 -0.48446 2.02656
						CHANNELS 3 Zrotation Yrotation Xrotation
						End Site
						{
							OFFSET 0.00000 -0.00000 1.04989
						}
					}
				}
			}
		}
	}
	JOINT RHipJoint
	{
		OFFSET 0 0 0
		CHANNELS 3 Zrotation Yrotation Xrotation
		JOINT RightUpLeg
		{
			OFFSET -1.48599 -1.60504 1.11378
			CHANNELS 3 Zrotation Yrotation Xrotation
			JOINT RightLeg
			{
				OFFSET -2.27280 -6.24448 0.00000
				CHANNELS 3 Zrotation Yrotation Xrotation
				JOINT RightFoot
				{
					OFFSET -2.50834 -6.89161 0.00000
					CHANNELS 3 Zrotation Yrotation Xrotation
					JOINT RightToeBase
					{
						OFFSET -0.26967 -0.74090 2.08741
						CHANNELS 3 Zrotation Yrotation Xrotation
						End Site
						{
							OFFSET -0.00000 -0.00000 1.10614
						}
					}
				}
			}
		}
	}
	JOINT LowerBack
	{
		OFFSET 0 0 0
		CHANNELS 3 Zrotation Yrotation Xrotation
		JOINT Spine
		{
			OFFSET 0.06481 2.02437 -0.08472
			CHANNELS 3 Zrotation Yrotation Xrotation
			JOINT Spine1
			{
				OFFSET 0.00015 1.96711 0.18069
				CHANNELS 3 Zrotation Yrotation Xrotation
				JOINT Neck
				{
					OFFSET 0 0 0
					CHANNELS 3 Zrotation Yrotation Xrotation
					JOINT Neck1
					{
						OFFSET -0.29961 1.68293 -0.13041
						CHANNELS 3 Zrotation Yrotation Xrotation
						JOINT Head
						{
							OFFSET 0.59697 1.61501 -0.14669
							CHANNELS 3 Zrotation Yrotation Xrotation
							End Site
							{
								OFFSET 0.22973 1.74906 -0.10148
							}
						}
					}
				}
				JOINT LeftShoulder
				{
					OFFSET 0 0 0
					CHANNELS 3 Zrotation Yrotation Xrotation
					JOINT LeftArm
					{
						OFFSET 3.37968 1.02893 0.31147
						CHANNELS 3 Zrotation Yrotation Xrotation
						JOINT LeftForeArm
						{
							OFFSET 5.19807 -0.00000 -0.00000
							CHANNELS 3 Zrotation Yrotation Xrotation
							JOINT LeftHand
							{
								OFFSET 3.09370 -0.00000 -0.00000
								CHANNELS 3 Zrotation Yrotation Xrotation
								JOINT LeftFingerBase
								{
									OFFSET 0 0 0
									CHANNELS 3 Zrotation Yrotation Xrotation
									JOINT LeftHandIndex1
									{
										OFFSET 0.67263 -0.00000 -0.00000
										CHANNELS 3 Zrotation Yrotation Xrotation
										End Site
										{
											OFFSET 0.54229 -0.00000 -0.00000
										}
									}
								}
								JOINT LThumb
								{
									OFFSET 0 0 0
									CHANNELS 3 Zrotation Yrotation Xrotation
									End Site
									{
										OFFSET 0.55057 -0.00000 0.55057
									}
								}
							}
						}
					}
				}
				JOINT RightShoulder
				{
					OFFSET 0 0 0
					CHANNELS 3 Zrotation Yrotation Xrotation
					JOINT RightArm
					{
						OFFSET -3.38254 0.96355 -0.16120
						CHANNELS 3 Zrotation Yrotation Xrotation
						JOINT RightForeArm
						{
							OFFSET -5.45222 -0.00000 -0.00000
							CHANNELS 3 Zrotation Yrotation Xrotation
							JOINT RightHand
							{
								OFFSET -3.01284 -0.00000 -0.00000
								CHANNELS 3 Zrotation Yrotation Xrotation
								JOINT RightFingerBase
								{
									OFFSET 0 0 0
									CHANNELS 3 Zrotation Yrotation Xrotation
									JOINT RightHandIndex1
									{
										OFFSET -0.62230 -0.00000 -0.00000
										CHANNELS 3 Zrotation Yrotation Xrotation
										End Site
										{
											OFFSET -0.50171 -0.00000 -0.00000
										}
									}
								}
								JOINT RThumb
								{
									OFFSET 0 0 0
									CHANNELS 3 Zrotation Yrotation Xrotation
									End Site
									{
										OFFSET -0.50937 -0.00000 0.50937
									}
								}
							}
						}
					}
				}
			}
		}
	}
}
MOTION
Frames: 11
Frame Time: 0.0408163
0.00 0.00 0.00 -7.2524 9.0844 11.4758 0.0000 0.0000 0.0000 -12.1716 0.6200 6.4995 0.0970 2.0083 5.5286 0.8257 -7.1107 -16.2431 2.8403 -10.4319 -30.3869 0.0000 0.0000 0.0000 24.7684 11.6516 -29.9202 -2.2897 -9.4451 27.1979 1.2820 22.6697 -3.8873 -1.1899 6.9222 -19.4851 3.1986 0.7774 -6.2439 1.2809 1.0183 -7.7815 -0.4397 0.3991 -4.5469 -31.4816 -10.1444 21.5890 43.1088 -19.6987 -10.7592 22.9315 -12.5345 2.1091 0.0000 -0.0000 0.0000 -84.2116 16.8463 52.5758 54.9532 -54.8078 -30.1778 -0.0000 0.0000 -51.5562 28.4800 -14.4859 -7.7280 -7.1250 0.0000 -0.0000 0.6544 13.6012 -0.4822 0.0000 -0.0000 0.0000 87.3967 -5.9823 21.8967 -18.9871 29.4026 -5.0245 0.0000 0.0000 15.3052 -10.7987 -4.9944 0.9513 7.1250 -0.0000 -0.0000 13.0978 -34.8177 3.3477
0.00 0.00 0.00 -1.2431 3.2488 10.0806 0.0000 0.0000 0.0000 -20.0863 1.2203 5.9212 0.1598 2.5753 7.0984 1.1466 -6.1529 -19.1322 1.4709 -7.6639 -21.6977 0.0000 0.0000 0.0000 15.1907 20.6721 -32.7385 -3.6908 -11.7372 34.8086 0.6331 18.3716 -6.0828 -1.5138 7.7700 -22.0176 0.5152 -0.6082 -5.5952 0.3526 -0.8006 -8.2524 0.0719 -0.4147 -5.4325 -30.8467 -9.6800 16.0810 44.5794 -16.2802 -15.4779 24.2262 -10.4580 0.6896 0.0000 0.0000 0.0000 -88.8769 -6.3269 44.9638 77.6687 -59.4176 -49.3416 -0.0000 0.0000 -54.0848 36.0309 -22.5201 -15.5672 -7.1250 0.0000 -0.0000 4.3362 2.9028 -4.1231 0.0000 0.0000 0.0000 90.7287 11.2870 40.1999 -61.2729 56.6397 -35.4023 0.0000 -0.0000 -23.2851 -9.2216 -18.3686 2.9288 7.1250 -0.0000 -0.0000 18.0958 -47.7184 -1.2525
0.00 0.00 0.00 -1.6068 3.5823 11.1835 0.0000 0.0000 0.0000 -19.4989 0.7389 6.1469 0.0982 2.0213 5.5644 1.0500 -5.7121 -18.3045 1.7618 -8.3513 -23.7863 0.0000 0.0000 0.0000 15.8093 19.7117 -33.7769 -3.6611 -11.6952 34.6620 0.7726 19.5614 -5.8077 -1.4661 7.6521 -21.6622 1.4889 -0.6901 -5.3250 0.1514 -0.9277 -8.5979 -0.6746 -0.5459 -5.9797 -30.2196 -9.8706 14.8151 45.1186 -15.9244 -16.1072 24.4040 -10.2485 0.6653 -0.0000 -0.0000 0.0000 -91.1709 -11.1637 43.2325 94.5458 -59.9218 -63.9358 -0.0000 0.0000 -53.4706 39.7961 -24.0753 -18.7694 -7.1250 0.0000 -0.0000 6.2646 -0.0404 -6.3068 -0.0000 -0.0000 0.0000 94.5681 17.4806 44.7043 -74.7642 59.1045 -46.8451 0.0000 -0.0000 -27.4076 -12.6700 -19.8510 4.3655 7.1250 -0.0000 -0.0000 15.4811 -49.6455 -1.8119
0.00 0.00 0.00 -2.2512 3.8604 12.7977 0.0000 0.0000 0.0000 -18.4224 -0.1941 4.8676 0.1118 2.1557 5.9361 1.0286 -5.2734 -18.1332 2.2577 -9.3835 -27.0024 0.0000 0.0000 0.0000 16.4216 20.5484 -34.4942 -3.5031 -11.4680 33.8750 0.7879 19.4734 -5.4809 -1.4614 7.6403 -21.6267 2.3949 -0.1353 -4.9826 -0.1804 -0.1924 -9.1244 -1.5254 -0.2584 -6.7388 -29.4813 -10.3013 14.5087 46.0788 -15.9013 -17.8528 25.0050 -10.3619 0.3849 0.0000 -0.0000 0.0000 -93.7675 -16.7898 45.5711 113.3668 -57.8329 -80.0890 -0.0000 0.0000 -44.7887 37.3321 -27.1215 -19.1720 -7.1250 0.0000 -0.0000 4.1676 -2.7313 -4.3729 0.0000 -0.0000 0.0000 100.7312 24.6828 50.8046 -94.9062 59.9088 -64.2476 0.0000 -0.0000 -23.1622 -18.4313 -17.9733 5.8715 7.1250 -0.0000 -0.0000 9.3679 -48.6307 -0.8458
0.00 0.00 0.00 -3.1445 6.9441 12.9563 0.0000 0.0000 0.0000 -15.9007 -5.9220 0.8774 0.8380 5.8394 16.3193 1.2355 -5.5022 -19.9126 3.2744 -11.1266 -32.7079 0.0000 0.0000 0.0000 18.5119 19.7779 -33.0603 -3.3126 -11.1847 32.9055 0.6322 18.3168 -6.0240 -1.3933 7.4678 -21.1088 2.7279 0.9917 -2.3318 -0.5628 1.4007 -9.4324 -2.1896 0.4713 -8.5246 -29.1935 -11.1943 14.7305 46.4659 -17.3322 -17.2920 24.5751 -11.1547 1.1947 -0.0000 -0.0000 0.0000 -97.5849 -22.8671 55.2181 129.2418 -53.2968 -93.2192 -0.0000 0.0000 -29.1545 47.6039 -29.6498 -28.4504 -7.1250 0.0000 -0.0000 9.2145 -9.7341 -10.7681 -0.0000 -0.0000 0.0000 112.4294 33.6049 77.4160 -105.9246 59.0198 -73.7457 0.0000 -0.0000 -17.2106 -27.2032 -20.3606 10.1393 7.1250 -0.0000 -0.0000 1.3357 -52.6241 -0.2507
0.00 0.00 0.00 -5.4995 13.8282 11.0752 0.0000 0.0000 0.0000 -11.5499 -14.2136 -6.3099 3.0785 10.8210 31.6786 1.8793 -8.7363 -24.5828 3.3923 -11.3046 -33.3141 0.0000 0.0000 0.0000 20.3635 17.9476 -34.4517 -3.8546 -11.9643 35.6059 0.1728 14.5694 -8.1164 -1.6369 8.0649 -22.9112 3.5187 2.1913 0.0444 0.5300 3.1395 -6.6396 -1.5953 1.3842 -6.7847 -30.8050 -11.3171 17.0353 44.5664 -19.7484 -11.5673 22.9543 -12.2847 3.0761 -0.0000 -0.0000 0.0000 -92.5795 -16.0488 68.4359 134.8610 -50.8364 -97.6535 -0.0000 0.0000 -29.8834 53.4605 -32.1291 -35.6666 -7.1250 0.0000 -0.0000 11.4944 -15.7475 -14.4283 -0.0000 -0.0000 0.0000 107.6158 28.3836 66.3215 -121.2752 55.9604 -86.7178 0.0000 -0.0000 -28.5691 -27.9836 -17.3436 9.0006 7.1250 -0.0000 -0.0000 -0.0452 -49.4558 0.0050
0.00 0.00 0.00 -4.3274 13.0710 10.9600 0.0000 0.0000 0.0000 -14.6411 -18.9584 -6.3685 2.7135 10.2161 29.6795 1.7523 -10.6403 -23.8137 2.7933 -10.3528 -30.1268 0.0000 0.0000 0.0000 16.0854 17.4169 -35.2179 -3.0505 -10.7763 31.5291 0.5054 14.6234 -2.7787 -2.4814 9.8040 -28.3443 4.1044 1.7563 0.3510 0.3638 2.5695 -6.3421 -2.0691 1.0662 -6.6434 -30.8768 -10.9679 17.8332 44.5312 -19.5892 -11.0137 23.1978 -12.2776 2.9859 0.0000 -0.0000 0.0000 -86.6569 -4.0001 63.6354 138.2993 -49.0458 -100.2858 -0.0000 0.0000 -65.9092 33.8343 -9.9126 -6.5823 -7.1250 0.0000 -0.0000 4.8077 18.1235 -3.0846 0.0000 -0.0000 0.0000 93.9891 25.6889 68.0120 -124.7353 54.9101 -89.5675 0.0000 -0.0000 -2.3916 -15.9689 0.5561 -0.1591 7.1250 -0.0000 -0.0000 8.2848 -29.3543 3.1900
0.00 0.00 0.00 -3.4896 11.0906 11.9915 0.0000 0.0000 0.0000 -16.3347 -17.2348 -9.8454 2.5628 9.9512 28.8190 1.4671 -11.3783 -21.9296 2.1124 -9.0963 -26.0970 0.0000 0.0000 0.0000 13.0242 18.2592 -35.8857 -2.1300 -9.1317 26.2083 0.7145 14.8648 3.7547 -2.5985 10.0149 -29.0250 3.0967 1.4832 0.9388 -0.0761 2.1422 -5.8660 -1.9513 0.9008 -6.5120 -29.5045 -11.1174 17.4837 45.8726 -18.7797 -13.4529 24.0951 -12.0554 2.1613 0.0000 -0.0000 0.0000 -82.8218 6.5555 64.6748 135.4862 -50.5281 -98.1372 -0.0000 0.0000 -76.7444 33.7277 -7.4087 -4.9202 -7.1250 0.0000 -0.0000 5.0047 21.1082 -2.8773 0.0000 -0.0000 0.0000 84.3605 19.3811 73.3303 -109.7752 58.4696 -77.0378 0.0000 0.0000 22.5691 -22.1280 10.6933 -4.3148 7.1250 -0.0000 -0.0000 3.4837 -18.4704 2.2047
0.00 0.00 0.00 -2.7608 8.2002 14.7785 0.0000 0.0000 0.0000 -17.3366 -13.9866 -16.8944 2.4535 9.7529 28.1801 0.9239 -14.0855 -18.5100 1.3296 -7.3019 -20.6128 0.0000 0.0000 0.0000 11.6852 15.1305 -39.7413 -1.2863 -7.1868 20.2701 0.7305 16.4706 13.6036 -1.8886 8.6301 -24.6448 1.9229 1.8792 1.3376 -0.5921 2.5982 -5.7866 -1.8755 1.1717 -6.6541 -28.8106 -11.6273 17.2303 47.5019 -18.3579 -17.4725 25.4389 -12.1349 1.2799 -0.0000 0.0000 0.0000 -81.0569 15.2274 65.3936 122.1410 -55.7119 -87.4342 -0.0000 0.0000 -77.8446 34.2305 -6.8597 -4.6458 -7.1250 0.0000 -0.0000 5.4232 21.7153 -3.0452 -0.0000 0.0000 0.0000 78.7057 8.4881 75.2606 -93.4529 59.9549 -62.9898 0.0000 0.0000 20.2611 -17.7968 10.1287 -3.2310 7.1250 -0.0000 -0.0000 6.5426 -19.3898 4.0256
0.00 0.00 0.00 -2.9642 5.0683 15.6112 0.0000 0.0000 0.0000 -17.7448 -13.1310 -20.5123 2.4899 9.8195 28.3942 0.7822 -12.8150 -16.9724 1.2460 -7.0775 -19.9453 0.0000 0.0000 0.0000 12.2918 15.1159 -40.2545 -1.9703 -8.8040 25.1842 0.6980 14.6453 4.2989 -2.2354 9.3400 -26.8648 1.3933 2.2214 2.2056 -0.4166 3.0461 -5.2382 -1.4516 1.4284 -6.5864 -29.0142 -11.5775 16.6998 47.9617 -17.5203 -20.4524 26.3623 -11.7759 0.3853 0.0000 0.0000 0.0000 -79.5813 18.5544 66.6248 106.0242 -59.0072 -73.8311 -0.0000 0.0000 -78.1804 27.7211 9.9955 5.2114 -7.1250 0.0000 -0.0000 0.6358 41.2391 -0.0590 0.0000 0.0000 0.0000 75.4959 1.5814 77.2096 -80.3413 59.6445 -51.6453 0.0000 0.0000 13.9429 -17.5378 11.8771 -3.7214 7.1250 -0.0000 -0.0000 6.7302 -17.5933 4.4118
0.00 0.00 0.00 -2.9333 3.7950 14.5846 0.0000 0.0000 0.0000 -18.2421 -13.2208 -22.0973 2.5584 9.9434 28.7936 0.5996 -11.9266 -15.0718 1.1449 -6.7946 -19.1082 0.0000 0.0000 0.0000 15.8509 12.2689 -36.1389 -5.1730 -13.5760 41.5648 -0.3850 10.1891 -12.2819 -1.9484 8.7577 -25.0401 2.1415 1.2440 3.4379 -0.6022 1.7797 -4.5087 -1.9884 0.7606 -6.5374 -28.4749 -10.9838 15.7503 47.7046 -16.2156 -20.5834 26.4618 -11.0132 -0.2156 -0.0000 -0.0000 0.0000 -76.9233 18.8808 70.8995 92.9351 -59.9674 -62.5416 -0.0000 0.0000 -78.0048 21.9787 9.1760 3.6825 -7.1250 0.0000 -0.0000 -4.3402 39.8251 0.5548 -0.0000 -0.0000 0.0000 71.8643 -1.1198 82.7518 -76.2309 59.2714 -48.1048 0.0000 0.0000 6.8762 -16.9149 9.1698 -2.7745 7.1250 -0.0000 -0.0000 7.1787 -20.4378 4.2531
